<svg width="151" height="80" viewBox="0 0 151 80" fill="none" xmlns="http://www.w3.org/2000/svg">
<rect width="151" height="80" fill="#FFFDFD"/>
<path d="M22.1202 54.485C21.1302 54.515 20.0352 54.425 18.8352 54.215C17.6352 54.035 16.4652 53.705 15.3252 53.225C14.1852 52.745 13.1952 52.115 12.3552 51.335C11.5152 50.555 10.9452 49.595 10.6452 48.455C11.7252 49.415 13.1952 50.12 15.0552 50.57C16.9152 50.99 18.8052 51.2 20.7252 51.2C23.2752 51.2 25.4952 50.915 27.3852 50.345C27.9252 50.195 28.5552 49.955 29.2752 49.625C29.9952 49.265 30.7002 48.86 31.3902 48.41C32.0802 47.93 32.6502 47.405 33.1002 46.835C33.5802 46.265 33.8202 45.68 33.8202 45.08C33.8202 44.66 33.6852 44.255 33.4152 43.865C33.1452 43.475 32.7102 43.085 32.1102 42.695C31.7502 42.485 31.2252 42.26 30.5352 42.02C29.8752 41.75 29.1552 41.45 28.3752 41.12C27.5952 40.76 26.8602 40.355 26.1702 39.905C25.4802 39.425 24.9252 38.87 24.5052 38.24C24.1152 37.58 23.9652 36.83 24.0552 35.99C24.2052 34.76 24.7602 33.545 25.7202 32.345C26.7102 31.115 27.9402 29.975 29.4102 28.925C30.9102 27.845 32.5152 26.9 34.2252 26.09C35.9652 25.28 37.6602 24.65 39.3102 24.2C40.9902 23.72 42.4752 23.48 43.7652 23.48C45.0852 23.48 46.2102 23.735 47.1402 24.245C48.1002 24.755 48.5052 25.625 48.3552 26.855C48.2952 27.395 47.9202 28.04 47.2302 28.79C46.5702 29.54 45.7752 30.365 44.8452 31.265C43.9152 32.165 42.9852 33.11 42.0552 34.1C41.1552 35.09 40.4052 36.095 39.8052 37.115C39.2352 38.135 38.9802 39.125 39.0402 40.085C38.5602 39.695 38.2002 39.26 37.9602 38.78C37.7502 38.3 37.6452 37.805 37.6452 37.295C37.6452 36.575 37.7952 35.84 38.0952 35.09C38.3952 34.34 38.7702 33.635 39.2202 32.975C39.6702 32.285 40.0902 31.7 40.4802 31.22C41.1702 30.38 41.9502 29.585 42.8202 28.835C43.6902 28.085 44.5752 27.395 45.4752 26.765C45.2052 26.375 44.7402 26.18 44.0802 26.18C43.3902 26.18 42.6102 26.33 41.7402 26.63C40.9002 26.93 40.1052 27.26 39.3552 27.62C38.6352 27.95 38.1252 28.205 37.8252 28.385C36.5352 29.075 35.2302 29.855 33.9102 30.725C32.6202 31.595 31.4202 32.48 30.3102 33.38C29.2302 34.28 28.3452 35.12 27.6552 35.9C26.9952 36.65 26.6352 37.28 26.5752 37.79C26.5152 38.42 26.7852 38.96 27.3852 39.41C27.9852 39.83 28.7652 40.22 29.7252 40.58C30.6852 40.94 31.6302 41.36 32.5602 41.84C33.8202 42.47 34.7352 43.19 35.3052 44C35.8752 44.81 36.1602 45.65 36.1602 46.52C36.1602 47.6 35.7552 48.665 34.9452 49.715C34.1352 50.735 33.0402 51.59 31.6602 52.28C30.4302 52.88 29.1402 53.345 27.7902 53.675C26.4702 54.005 25.2852 54.215 24.2352 54.305C23.2152 54.425 22.5102 54.485 22.1202 54.485ZM51.0137 54.755C50.6237 54.605 50.2337 54.335 49.8437 53.945C49.4837 53.555 49.3037 52.88 49.3037 51.92C49.3037 51.11 49.4387 50.27 49.7087 49.4C49.9787 48.5 50.3237 47.615 50.7437 46.745C49.9637 47.735 49.1087 48.71 48.1787 49.67C47.2787 50.63 46.3637 51.425 45.4337 52.055C44.5337 52.655 43.6937 52.955 42.9137 52.955C42.2537 52.955 41.6987 52.775 41.2487 52.415C40.8287 52.055 40.6187 51.5 40.6187 50.75C40.6187 50.21 40.7237 49.625 40.9337 48.995C41.1437 48.365 41.5187 47.66 42.0587 46.88C42.5987 46.1 43.1837 45.335 43.8137 44.585C44.4737 43.805 45.0437 43.145 45.5237 42.605C45.8537 42.215 46.0187 41.9 46.0187 41.66C46.0187 41.36 45.8537 41.21 45.5237 41.21C45.1637 41.21 44.6537 41.45 43.9937 41.93C43.3037 42.44 42.5687 43.07 41.7887 43.82C41.0087 44.54 40.2737 45.245 39.5837 45.935C38.8937 46.595 38.3087 47.12 37.8287 47.51C37.7387 47.6 37.6487 47.645 37.5587 47.645C37.4087 47.645 37.3337 47.555 37.3337 47.375C37.3337 47.225 37.4687 47.03 37.7387 46.79C39.0587 45.65 40.1537 44.615 41.0237 43.685C41.8937 42.725 42.7487 41.915 43.5887 41.255C44.0387 40.895 44.5037 40.64 44.9837 40.49C45.4637 40.31 45.9137 40.22 46.3337 40.22C47.0537 40.22 47.6537 40.43 48.1337 40.85C48.6137 41.27 48.8537 41.855 48.8537 42.605C48.8537 43.175 48.7037 43.775 48.4037 44.405C48.0737 45.155 47.6237 45.905 47.0537 46.655C46.5137 47.375 45.9887 48.08 45.4787 48.77C45.0887 49.34 44.8037 49.805 44.6237 50.165C44.4437 50.525 44.3537 50.795 44.3537 50.975C44.3537 51.215 44.4737 51.335 44.7137 51.335C44.9537 51.335 45.2987 51.2 45.7487 50.93C46.1987 50.66 46.6637 50.315 47.1437 49.895C47.4737 49.595 47.7587 49.325 47.9987 49.085C48.2687 48.815 48.4637 48.62 48.5837 48.5C49.2737 47.78 49.9637 47.015 50.6537 46.205C51.3437 45.365 51.9437 44.6 52.4537 43.91C52.8437 43.4 53.1437 43.01 53.3537 42.74C53.5937 42.47 53.8487 42.185 54.1187 41.885C54.6287 41.315 55.1687 41.015 55.7387 40.985C56.0687 40.985 56.4437 41.06 56.8637 41.21C57.3137 41.33 57.7487 41.585 58.1687 41.975C57.8687 42.395 57.4187 42.98 56.8187 43.73C56.2487 44.45 55.6187 45.26 54.9287 46.16C54.2687 47.03 53.6237 47.93 52.9937 48.86C52.3937 49.79 51.8987 50.66 51.5087 51.47C51.1187 52.28 50.9237 52.985 50.9237 53.585C50.9237 54.005 51.0437 54.335 51.2837 54.575C51.4037 54.695 51.4037 54.755 51.2837 54.755C51.1637 54.785 51.0737 54.785 51.0137 54.755ZM62.353 53.225C61.153 53.225 60.313 52.94 59.833 52.37C59.353 51.77 59.113 51.08 59.113 50.3C59.113 49.55 59.248 48.755 59.518 47.915C59.818 47.075 60.148 46.28 60.508 45.53C60.118 45.95 59.743 46.34 59.383 46.7C59.023 47.03 58.723 47.3 58.483 47.51C58.363 47.6 58.243 47.645 58.123 47.645C57.973 47.645 57.898 47.57 57.898 47.42C57.898 47.27 57.988 47.135 58.168 47.015C58.798 46.475 59.533 45.74 60.373 44.81C61.213 43.88 61.993 42.935 62.713 41.975C63.313 41.195 64.033 40.22 64.873 39.05C65.713 37.88 66.568 36.65 67.438 35.36C68.308 34.04 69.058 32.84 69.688 31.76C69.778 31.58 69.868 31.355 69.958 31.085C70.078 30.815 70.138 30.575 70.138 30.365C70.138 30.065 70.018 29.915 69.778 29.915C69.718 29.915 69.538 29.975 69.238 30.095C68.968 30.215 68.698 30.335 68.428 30.455C68.158 30.575 67.993 30.635 67.933 30.635C67.693 30.635 67.708 30.5 67.978 30.23C68.458 29.87 69.058 29.525 69.778 29.195C70.528 28.835 71.293 28.535 72.073 28.295C72.853 28.055 73.513 27.935 74.053 27.935C75.313 27.935 75.943 28.34 75.943 29.15C75.943 29.57 75.748 30.125 75.358 30.815C75.028 31.355 74.548 32 73.918 32.75C73.288 33.47 72.583 34.25 71.803 35.09C71.053 35.9 70.318 36.71 69.598 37.52C68.878 38.3 68.278 38.99 67.798 39.59C67.678 39.74 67.378 40.13 66.898 40.76C66.448 41.39 65.923 42.155 65.323 43.055C64.753 43.925 64.168 44.855 63.568 45.845C62.998 46.805 62.518 47.735 62.128 48.635C61.768 49.505 61.588 50.24 61.588 50.84C61.588 51.65 61.978 52.055 62.758 52.055C63.268 52.055 63.913 51.905 64.693 51.605C65.443 51.335 66.223 50.93 67.033 50.39C67.873 49.82 68.683 49.22 69.463 48.59C70.273 47.96 70.978 47.36 71.578 46.79C72.208 46.22 72.673 45.785 72.973 45.485C73.153 45.305 73.303 45.215 73.423 45.215C73.543 45.215 73.603 45.29 73.603 45.44C73.603 45.59 73.528 45.74 73.378 45.89C72.898 46.4 72.238 47.06 71.398 47.87C70.588 48.68 69.673 49.505 68.653 50.345C67.663 51.155 66.628 51.845 65.548 52.415C64.468 52.955 63.403 53.225 62.353 53.225ZM75.8056 53.45C74.4856 53.45 73.3756 53.135 72.4756 52.505C71.6056 51.845 71.1706 50.9 71.1706 49.67C71.1706 48.35 71.4856 47.12 72.1156 45.98C72.7456 44.84 73.5856 43.85 74.6356 43.01C75.6856 42.14 76.8256 41.465 78.0556 40.985C79.3156 40.505 80.5606 40.265 81.7906 40.265C83.0206 40.265 83.9356 40.49 84.5356 40.94C85.1356 41.36 85.4356 41.885 85.4356 42.515C85.4356 43.115 85.1506 43.76 84.5806 44.45C84.0406 45.11 83.2456 45.695 82.1956 46.205C81.5356 46.505 80.7706 46.775 79.9006 47.015C79.0606 47.225 78.3256 47.33 77.6956 47.33C77.2156 47.33 76.9756 47.255 76.9756 47.105C76.9756 46.985 77.1856 46.925 77.6056 46.925C77.9956 46.925 78.5956 46.82 79.4056 46.61C80.2456 46.37 81.0556 46.055 81.8356 45.665C82.7056 45.185 83.3206 44.705 83.6806 44.225C84.0406 43.745 84.2206 43.31 84.2206 42.92C84.2206 42.56 84.0706 42.26 83.7706 42.02C83.5006 41.78 83.1106 41.66 82.6006 41.66C82.1206 41.66 81.5806 41.795 80.9806 42.065C80.1106 42.455 79.2106 43.1 78.2806 44C77.3806 44.87 76.6306 45.83 76.0306 46.88C75.4306 47.93 75.1306 48.935 75.1306 49.895C75.1306 50.555 75.3106 51.11 75.6706 51.56C76.0606 52.01 76.6306 52.235 77.3806 52.235C78.1606 52.235 79.0606 51.995 80.0806 51.515C81.1006 51.005 82.1356 50.39 83.1856 49.67C84.2356 48.92 85.2106 48.17 86.1106 47.42C87.0106 46.67 87.7306 46.04 88.2706 45.53C88.4506 45.35 88.5856 45.26 88.6756 45.26C88.7656 45.26 88.8106 45.335 88.8106 45.485C88.8106 45.695 88.7206 45.875 88.5406 46.025C87.4006 47.075 86.1556 48.17 84.8056 49.31C83.4856 50.45 82.0606 51.425 80.5306 52.235C79.0306 53.015 77.4556 53.42 75.8056 53.45ZM88.3985 56.555C87.7385 55.955 87.2885 55.4 87.0485 54.89C86.8385 54.41 86.7335 53.735 86.7335 52.865C86.7335 51.965 86.8535 50.96 87.0935 49.85C87.3635 48.74 87.7385 47.585 88.2185 46.385C87.9185 46.685 87.6035 46.985 87.2735 47.285C86.9435 47.585 86.6135 47.855 86.2835 48.095C86.1935 48.185 86.1035 48.23 86.0135 48.23C85.9235 48.23 85.8785 48.185 85.8785 48.095C85.8785 47.885 86.0585 47.6 86.4185 47.24C86.8985 46.82 87.3485 46.355 87.7685 45.845C88.1885 45.335 88.6535 44.765 89.1635 44.135C90.6635 40.805 92.3435 37.805 94.2035 35.135C96.0635 32.465 98.3135 29.9 100.954 27.44C102.304 26.21 103.564 25.325 104.734 24.785C105.934 24.245 106.984 23.975 107.884 23.975C108.784 23.975 109.489 24.215 109.999 24.695C110.509 25.175 110.764 25.805 110.764 26.585C110.764 27.335 110.509 28.19 109.999 29.15C109.519 30.11 108.724 31.115 107.614 32.165C106.834 32.915 105.904 33.695 104.824 34.505C103.744 35.285 102.634 36.02 101.494 36.71C100.354 37.4 99.2885 37.97 98.2985 38.42C98.2385 38.45 98.1785 38.48 98.1185 38.51C98.0585 38.51 97.9985 38.51 97.9385 38.51C97.7285 38.51 97.6235 38.435 97.6235 38.285C97.6235 38.105 97.7885 37.955 98.1185 37.835C99.0485 37.415 100.069 36.845 101.179 36.125C102.319 35.405 103.414 34.625 104.464 33.785C105.514 32.945 106.399 32.15 107.119 31.4C108.019 30.44 108.664 29.63 109.054 28.97C109.474 28.28 109.684 27.755 109.684 27.395C109.684 26.945 109.429 26.72 108.919 26.72C108.379 26.72 107.599 27.005 106.579 27.575C105.589 28.115 104.449 28.955 103.159 30.095C101.569 31.505 99.9935 33.125 98.4335 34.955C96.9035 36.785 95.4935 38.6 94.2035 40.4C92.9435 42.17 91.8935 43.745 91.0535 45.125C92.2235 43.565 93.3635 42.35 94.4735 41.48C95.5835 40.61 96.6035 39.98 97.5335 39.59C98.3135 39.29 99.0485 39.14 99.7385 39.14C100.519 39.14 101.149 39.335 101.629 39.725C102.109 40.115 102.349 40.61 102.349 41.21C102.349 41.81 102.139 42.485 101.719 43.235C101.329 43.985 100.654 44.72 99.6935 45.44C98.9435 45.98 97.9385 46.46 96.6785 46.88C95.4485 47.27 94.2935 47.465 93.2135 47.465C92.5835 47.465 92.0435 47.375 91.5935 47.195C92.1935 47.945 92.9435 48.68 93.8435 49.4C94.7435 50.09 95.6585 50.66 96.5885 51.11C97.5485 51.53 98.3885 51.74 99.1085 51.74C99.6185 51.74 100.084 51.605 100.504 51.335C100.924 51.065 101.134 50.735 101.134 50.345C101.134 50.285 101.164 50.255 101.224 50.255C101.314 50.255 101.359 50.285 101.359 50.345C101.359 50.915 101.119 51.38 100.639 51.74C100.189 52.1 99.6335 52.355 98.9735 52.505C98.6735 52.565 98.3585 52.625 98.0285 52.685C97.7285 52.715 97.4135 52.73 97.0835 52.73C95.8535 52.73 94.6985 52.52 93.6185 52.1C92.5685 51.65 91.6535 51.11 90.8735 50.48C90.1235 49.82 89.5835 49.19 89.2535 48.59C88.8635 49.55 88.5635 50.51 88.3535 51.47C88.1735 52.4 88.0835 53.255 88.0835 54.035C88.0835 55.085 88.2635 55.835 88.6235 56.285C88.7135 56.405 88.7135 56.48 88.6235 56.51C88.5335 56.57 88.4585 56.585 88.3985 56.555ZM92.3585 46.97C93.1085 46.97 93.9935 46.79 95.0135 46.43C96.0635 46.07 96.9185 45.635 97.5785 45.125C98.1185 44.705 98.5085 44.255 98.7485 43.775C99.0185 43.295 99.1535 42.86 99.1535 42.47C99.1535 42.05 99.0185 41.705 98.7485 41.435C98.5085 41.135 98.1485 40.985 97.6685 40.985C97.1885 40.985 96.6185 41.15 95.9585 41.48C95.2985 41.78 94.5335 42.32 93.6635 43.1C93.1835 43.55 92.6885 44.015 92.1785 44.495C91.6985 44.975 91.2485 45.47 90.8285 45.98C90.8885 46.13 90.9635 46.295 91.0535 46.475C91.1435 46.625 91.2485 46.73 91.3685 46.79C91.4885 46.85 91.6385 46.895 91.8185 46.925C91.9985 46.955 92.1785 46.97 92.3585 46.97ZM111.746 53.045C110.996 53.045 110.396 52.835 109.946 52.415C109.526 51.995 109.316 51.425 109.316 50.705C109.316 50.255 109.421 49.745 109.631 49.175C109.841 48.605 110.171 48.02 110.621 47.42C111.311 46.49 111.971 45.68 112.601 44.99C113.231 44.27 113.696 43.625 113.996 43.055C114.296 42.515 114.446 42.095 114.446 41.795C114.446 41.345 114.176 41.12 113.636 41.12C113.156 41.12 112.466 41.39 111.566 41.93C110.696 42.44 109.781 43.28 108.821 44.45C108.281 45.11 107.666 45.89 106.976 46.79C106.286 47.66 105.731 48.47 105.311 49.22C105.131 49.55 104.951 49.895 104.771 50.255C104.621 50.585 104.381 51.155 104.051 51.965C103.961 52.175 103.706 52.4 103.286 52.64C102.896 52.88 102.581 53 102.341 53C102.161 53 102.071 52.925 102.071 52.775C102.071 52.655 102.116 52.505 102.206 52.325C102.356 52.055 102.686 51.2 103.196 49.76C103.736 48.32 104.411 46.625 105.221 44.675C104.771 45.155 104.276 45.68 103.736 46.25C103.196 46.79 102.596 47.315 101.936 47.825C101.816 47.945 101.681 48.005 101.531 48.005C101.351 48.005 101.261 47.93 101.261 47.78C101.261 47.66 101.396 47.495 101.666 47.285C102.356 46.685 103.046 46.055 103.736 45.395C104.426 44.705 105.176 43.85 105.986 42.83C106.256 42.17 106.736 41.225 107.426 39.995C108.116 38.735 108.941 37.34 109.901 35.81C110.861 34.28 111.926 32.75 113.096 31.22C114.266 29.69 115.466 28.325 116.696 27.125C117.806 26.045 118.961 25.22 120.161 24.65C121.391 24.08 122.501 23.795 123.491 23.795C124.361 23.795 125.066 24.005 125.606 24.425C126.146 24.845 126.416 25.52 126.416 26.45C126.416 27.38 126.161 28.37 125.651 29.42C125.141 30.47 124.601 31.31 124.031 31.94C122.741 33.38 121.211 34.7 119.441 35.9C117.701 37.1 115.871 38.12 113.951 38.96C113.891 38.99 113.831 39.02 113.771 39.05C113.711 39.05 113.651 39.05 113.591 39.05C113.381 39.05 113.276 38.975 113.276 38.825C113.276 38.645 113.441 38.495 113.771 38.375C114.911 37.865 116.066 37.235 117.236 36.485C118.436 35.735 119.546 34.925 120.566 34.055C121.586 33.185 122.441 32.315 123.131 31.445C123.941 30.425 124.466 29.6 124.706 28.97C124.946 28.31 125.066 27.755 125.066 27.305C125.066 26.705 124.736 26.405 124.076 26.405C123.776 26.405 123.341 26.555 122.771 26.855C122.201 27.125 121.526 27.575 120.746 28.205C119.546 29.165 118.301 30.335 117.011 31.715C115.751 33.095 114.506 34.595 113.276 36.215C112.076 37.835 110.936 39.485 109.856 41.165C108.776 42.845 107.801 44.48 106.931 46.07C107.291 45.56 107.666 45.05 108.056 44.54C108.446 44 108.836 43.52 109.226 43.1C110.126 42.11 111.011 41.39 111.881 40.94C112.751 40.49 113.531 40.265 114.221 40.265C115.001 40.265 115.631 40.505 116.111 40.985C116.591 41.435 116.831 42.05 116.831 42.83C116.831 43.25 116.756 43.67 116.606 44.09C116.486 44.48 116.336 44.84 116.156 45.17C115.916 45.68 115.601 46.28 115.211 46.97C114.821 47.66 114.446 48.305 114.086 48.905C113.396 50.015 113.051 50.81 113.051 51.29C113.051 51.56 113.171 51.695 113.411 51.695C113.711 51.695 114.206 51.485 114.896 51.065C115.436 50.735 116.036 50.315 116.696 49.805C117.386 49.265 118.061 48.71 118.721 48.14C119.411 47.57 119.996 47.075 120.476 46.655C120.986 46.205 121.316 45.905 121.466 45.755C121.646 45.575 121.781 45.485 121.871 45.485C121.961 45.485 122.006 45.53 122.006 45.62C122.006 45.77 121.901 45.98 121.691 46.25C120.911 47.06 119.936 47.975 118.766 48.995C117.596 50.015 116.276 51.005 114.806 51.965C114.236 52.355 113.681 52.64 113.141 52.82C112.631 52.97 112.166 53.045 111.746 53.045ZM122.651 53.045C121.721 53.045 121.001 52.76 120.491 52.19C119.981 51.59 119.726 50.825 119.726 49.895C119.726 49.025 119.951 48.065 120.401 47.015C120.881 45.965 121.631 44.9 122.651 43.82C123.701 42.68 125.006 41.765 126.566 41.075C128.126 40.355 129.611 39.995 131.021 39.995C132.161 39.995 133.136 40.25 133.946 40.76C134.756 41.24 135.296 41.855 135.566 42.605C135.896 42.605 136.301 42.695 136.781 42.875C137.291 43.055 137.546 43.385 137.546 43.865C137.546 44.195 137.381 44.57 137.051 44.99C136.841 45.29 136.466 45.74 135.926 46.34C135.416 46.94 134.936 47.585 134.486 48.275C134.126 48.815 133.841 49.325 133.631 49.805C133.421 50.255 133.316 50.645 133.316 50.975C133.316 51.425 133.541 51.65 133.991 51.65C134.501 51.65 135.266 51.365 136.286 50.795C137.396 50.165 138.461 49.445 139.481 48.635C140.501 47.825 141.296 47.18 141.866 46.7C142.016 46.58 142.121 46.52 142.181 46.52C142.301 46.52 142.361 46.595 142.361 46.745C142.361 46.925 142.286 47.09 142.136 47.24C141.866 47.48 141.341 47.93 140.561 48.59C139.781 49.25 138.881 49.94 137.861 50.66C136.871 51.38 135.896 51.965 134.936 52.415C134.456 52.625 134.006 52.79 133.586 52.91C133.196 53 132.836 53.045 132.506 53.045C131.696 53.045 131.081 52.82 130.661 52.37C130.241 51.89 130.031 51.275 130.031 50.525C130.031 50.225 130.076 49.91 130.166 49.58C130.256 49.25 130.361 48.92 130.481 48.59L130.796 47.825C130.016 48.785 129.236 49.595 128.456 50.255C127.676 50.885 126.896 51.44 126.116 51.92C125.456 52.31 124.826 52.595 124.226 52.775C123.656 52.955 123.131 53.045 122.651 53.045ZM124.046 51.875C124.586 51.875 125.366 51.56 126.386 50.93C127.406 50.27 128.591 49.265 129.941 47.915C130.121 47.735 130.451 47.42 130.931 46.97C131.441 46.49 131.981 45.965 132.551 45.395C133.121 44.795 133.601 44.21 133.991 43.64C134.411 43.04 134.621 42.545 134.621 42.155C134.621 41.585 134.126 41.3 133.136 41.3C132.266 41.3 131.216 41.645 129.986 42.335C128.786 42.995 127.631 43.985 126.521 45.305C125.381 46.655 124.541 47.825 124.001 48.815C123.491 49.775 123.236 50.51 123.236 51.02C123.236 51.59 123.506 51.875 124.046 51.875Z" fill="url(#paint0_linear_111_389)"/>
<defs>
<linearGradient id="paint0_linear_111_389" x1="1.42564" y1="52.2857" x2="138.019" y2="52.2857" gradientUnits="userSpaceOnUse">
<stop offset="0.203125" stop-color="#750AFC"/>
<stop offset="0.489583" stop-color="#0A9120"/>
<stop offset="0.65625" stop-color="#9F7C21"/>
<stop offset="1" stop-color="#E01D1D"/>
</linearGradient>
</defs>
</svg>
