<svg width="1512" height="314" viewBox="0 0 1512 314" fill="none" xmlns="http://www.w3.org/2000/svg">
<path d="M0 313.2L50.4 272.636C100.8 231.638 201.6 151.163 302.4 144.964C403.2 139.2 504 208.8 604.8 243.6C705.6 278.4 806.4 278.4 907.2 255.236C1008 231.638 1108.8 185.963 1209.6 174C1310.4 162.038 1411.2 185.963 1461.6 197.164L1512 208.8V0H1461.6C1411.2 0 1310.4 0 1209.6 0C1108.8 0 1008 0 907.2 0C806.4 0 705.6 0 604.8 0C504 0 403.2 0 302.4 0C201.6 0 100.8 0 50.4 0H0V313.2Z" fill="#B7DEB1"/>
</svg>
